# xmcd
#
# Track frame offsets: 
#        150
#        12957
#        26814
#        43629
#        54442
#        69815
#        84531
#        97003
#        114581
#        140719
#
# Disc length: 2066 seconds
#
# Revision: 0
# Processed by: cddbd v1.5.2PL0 Copyright (c) Steve Scherf et al.
# Submitted via: ExactAudioCopy v0.95a5
#
DISCID=8208100a
DTITLE=Teeny Tucker - Two Big M's
DYEAR=2008
DGENRE=Blues
TTITLE0=Hound Dog
TTITLE1=Unlucky Girl
TTITLE2=Bumble Bee
TTITLE3=Rockhouse
TTITLE4=Ramblin' Blues
TTITLE5=Whole Lotta Shakin'
TTITLE6=Saint Louis Blues
TTITLE7=Sassy Mama
TTITLE8=Two Big M's
TTITLE9=Heavy Load
EXTD=
EXTT0=
EXTT1=
EXTT2=
EXTT3=
EXTT4=
EXTT5=
EXTT6=
EXTT7=
EXTT8=
EXTT9=
PLAYORDER=
